REM DIRINDEX 1\2,1\3,1\4,1\5
REM DIRNAME cjc005,folder01,folder02,folder03,folder04
TITLE ""
FILE "P1Q_t_1170-1179.mp3" MP3
  TRACK 01 AUDIO
    TITLE "3:cjc005_4416"
    INDEX 01 00:00:00
  TRACK 02 AUDIO
    TITLE "0:"
    INDEX 01 00:01:11
  TRACK 03 AUDIO
    TITLE "4:cjc005_4417"
    INDEX 01 00:01:36
  TRACK 04 AUDIO
    TITLE "0:"
    INDEX 01 00:02:45
  TRACK 05 AUDIO
    TITLE "5:cjc005_4418"
    INDEX 01 00:02:71
  TRACK 06 AUDIO
    TITLE "0:"
    INDEX 01 00:05:56
  TRACK 07 AUDIO
    TITLE "3:cjc005_4419"
    INDEX 01 00:06:35
  TRACK 08 AUDIO
    TITLE "0:"
    INDEX 01 00:07:29
  TRACK 09 AUDIO
    TITLE "4:cjc005_4420"
    INDEX 01 00:07:60
  TRACK 10 AUDIO
    TITLE "0:"
    INDEX 01 00:09:47
  TRACK 11 AUDIO
    TITLE "5:cjc005_4421"
    INDEX 01 00:09:71
  TRACK 12 AUDIO
    TITLE "0:"
    INDEX 01 00:13:49
  TRACK 13 AUDIO
    TITLE "3:cjc005_4422"
    INDEX 01 00:14:31
  TRACK 14 AUDIO
    TITLE "0:"
    INDEX 01 00:15:46
  TRACK 15 AUDIO
    TITLE "4:cjc005_4423"
    INDEX 01 00:15:74
  TRACK 16 AUDIO
    TITLE "0:"
    INDEX 01 00:17:16
  TRACK 17 AUDIO
    TITLE "5:cjc005_4424"
    INDEX 01 00:17:39
  TRACK 18 AUDIO
    TITLE "0:"
    INDEX 01 00:20:53
  TRACK 19 AUDIO
    TITLE "3:cjc005_4425"
    INDEX 01 00:21:23
  TRACK 20 AUDIO
    TITLE "0:"
    INDEX 01 00:22:36
  TRACK 21 AUDIO
    TITLE "4:cjc005_4426"
    INDEX 01 00:22:58
  TRACK 22 AUDIO
    TITLE "0:"
    INDEX 01 00:24:20
  TRACK 23 AUDIO
    TITLE "5:cjc005_4427"
    INDEX 01 00:24:45
  TRACK 24 AUDIO
    TITLE "0:"
    INDEX 01 00:28:47
  TRACK 25 AUDIO
    TITLE "3:cjc005_4428"
    INDEX 01 00:29:23
  TRACK 26 AUDIO
    TITLE "0:"
    INDEX 01 00:30:44
  TRACK 27 AUDIO
    TITLE "4:cjc005_4429"
    INDEX 01 00:30:69
  TRACK 28 AUDIO
    TITLE "0:"
    INDEX 01 00:32:25
  TRACK 29 AUDIO
    TITLE "5:cjc005_4430"
    INDEX 01 00:32:48
  TRACK 30 AUDIO
    TITLE "0:"
    INDEX 01 00:37:01
  TRACK 31 AUDIO
    TITLE "3:cjc005_4431"
    INDEX 01 00:37:54
  TRACK 32 AUDIO
    TITLE "0:"
    INDEX 01 00:38:65
  TRACK 33 AUDIO
    TITLE "4:cjc005_4432"
    INDEX 01 00:39:07
  TRACK 34 AUDIO
    TITLE "0:"
    INDEX 01 00:40:46
  TRACK 35 AUDIO
    TITLE "5:cjc005_4433"
    INDEX 01 00:40:68
  TRACK 36 AUDIO
    TITLE "0:"
    INDEX 01 00:44:18
  TRACK 37 AUDIO
    TITLE "3:cjc005_4434"
    INDEX 01 00:44:69
  TRACK 38 AUDIO
    TITLE "0:"
    INDEX 01 00:46:13
  TRACK 39 AUDIO
    TITLE "4:cjc005_4435"
    INDEX 01 00:46:41
  TRACK 40 AUDIO
    TITLE "0:"
    INDEX 01 00:47:58
  TRACK 41 AUDIO
    TITLE "5:cjc005_4436"
    INDEX 01 00:48:08
  TRACK 42 AUDIO
    TITLE "0:"
    INDEX 01 00:52:28
  TRACK 43 AUDIO
    TITLE "3:cjc005_4437"
    INDEX 01 00:53:09
  TRACK 44 AUDIO
    TITLE "0:"
    INDEX 01 00:54:30
  TRACK 45 AUDIO
    TITLE "4:cjc005_4438"
    INDEX 01 00:54:50
  TRACK 46 AUDIO
    TITLE "0:"
    INDEX 01 00:56:02
  TRACK 47 AUDIO
    TITLE "5:cjc005_4439"
    INDEX 01 00:56:24
  TRACK 48 AUDIO
    TITLE "0:"
    INDEX 01 01:01:68
  TRACK 49 AUDIO
    TITLE "3:cjc005_4440"
    INDEX 01 01:02:42
  TRACK 50 AUDIO
    TITLE "0:"
    INDEX 01 01:03:61
  TRACK 51 AUDIO
    TITLE "4:cjc005_4441"
    INDEX 01 01:04:11
  TRACK 52 AUDIO
    TITLE "0:"
    INDEX 01 01:05:50
  TRACK 53 AUDIO
    TITLE "5:cjc005_4442"
    INDEX 01 01:05:71
  TRACK 54 AUDIO
    TITLE "0:"
    INDEX 01 01:10:26
  TRACK 55 AUDIO
    TITLE "3:cjc005_4443"
    INDEX 01 01:10:69
  TRACK 56 AUDIO
    TITLE "0:"
    INDEX 01 01:12:11
  TRACK 57 AUDIO
    TITLE "4:cjc005_4444"
    INDEX 01 01:12:32
  TRACK 58 AUDIO
    TITLE "0:"
    INDEX 01 01:13:59
  TRACK 59 AUDIO
    TITLE "5:cjc005_4445"
    INDEX 01 01:14:06
  TRACK 60 AUDIO
    TITLE "0:"
    INDEX 01 01:18:43
